<svg xmlns="http://www.w3.org/2000/svg" viewBox="0 0 824 806" width="824" height="806">
  <g fill="#111111" fill-rule="evenodd">
    <path d="M 561 721 L 556 723 L 556 775 L 558 783 L 569 783 L 571 781 L 571 724 L 568 721 Z M 605 720 L 597 724 L 586 737 L 584 743 L 584 762 L 586 768 L 595 779 L 603 783 L 617 785 L 629 781 L 641 770 L 645 761 L 645 741 L 639 729 L 633 724 L 625 720 Z M 612 729 L 623 731 L 630 739 L 632 745 L 632 757 L 628 767 L 620 774 L 610 774 L 606 772 L 601 767 L 597 755 L 599 740 L 604 733 Z M 472 720 L 463 724 L 452 737 L 450 743 L 450 763 L 456 774 L 464 781 L 476 785 L 484 785 L 495 781 L 507 770 L 511 760 L 511 742 L 505 730 L 491 720 Z M 478 729 L 483 729 L 491 733 L 494 736 L 498 747 L 498 757 L 494 767 L 485 774 L 476 774 L 472 772 L 465 765 L 463 758 L 463 746 L 465 740 L 471 733 Z M 353 720 L 341 720 L 332 728 L 331 723 L 328 721 L 321 720 L 318 722 L 319 783 L 331 782 L 331 746 L 333 744 L 333 740 L 338 733 L 343 731 L 354 733 L 355 722 Z M 265 720 L 254 726 L 246 736 L 243 750 L 244 764 L 248 772 L 262 783 L 270 785 L 286 783 L 295 777 L 303 766 L 305 760 L 305 740 L 299 729 L 292 723 L 286 720 L 278 719 Z M 271 729 L 277 729 L 285 733 L 292 744 L 292 758 L 290 764 L 283 772 L 279 774 L 269 774 L 261 767 L 257 759 L 257 746 L 259 740 L 264 733 Z M 380 702 L 378 704 L 373 704 L 370 707 L 371 719 L 369 721 L 360 722 L 358 730 L 370 732 L 370 770 L 372 776 L 379 783 L 391 785 L 401 781 L 401 773 L 395 772 L 391 774 L 385 771 L 383 766 L 383 732 L 400 731 L 401 722 L 399 720 L 384 721 L 384 703 Z M 559 694 L 556 698 L 556 706 L 559 709 L 568 709 L 572 702 L 571 696 L 566 693 Z M 223 688 L 195 687 L 182 689 L 183 783 L 196 782 L 197 745 L 216 745 L 218 743 L 222 743 L 229 739 L 237 730 L 241 713 L 239 703 L 233 694 Z M 198 697 L 211 697 L 218 699 L 224 705 L 226 709 L 226 721 L 218 732 L 207 736 L 199 736 L 196 733 L 196 701 Z M 527 684 L 524 688 L 524 782 L 538 783 L 539 686 L 537 684 Z M 448 684 L 436 683 L 427 686 L 418 697 L 418 701 L 416 703 L 416 720 L 407 721 L 404 724 L 407 731 L 416 732 L 417 783 L 429 782 L 429 732 L 444 731 L 446 728 L 444 721 L 429 720 L 429 705 L 431 699 L 435 695 L 449 694 L 450 687 Z M 65 541 L 78 555 L 78 603 L 83 611 L 92 615 L 120 613 L 238 611 L 241 608 L 242 590 L 240 588 L 111 592 L 109 590 L 109 544 L 107 541 L 98 536 L 89 535 L 71 536 Z M 358 545 L 350 562 L 350 582 L 356 596 L 362 603 L 376 613 L 397 621 L 426 623 L 454 617 L 468 609 L 483 594 L 489 580 L 489 562 L 481 545 L 464 530 L 445 522 L 422 519 L 394 522 L 372 532 Z M 389 550 L 398 543 L 410 539 L 427 539 L 440 543 L 448 549 L 456 559 L 458 566 L 458 577 L 454 587 L 447 594 L 432 602 L 408 602 L 394 596 L 383 583 L 383 579 L 381 577 L 381 564 L 383 558 Z M 800 499 L 746 498 L 731 500 L 676 500 L 649 502 L 559 502 L 556 506 L 556 510 L 560 519 L 569 527 L 579 529 L 584 527 L 597 527 L 600 525 L 617 525 L 625 523 L 667 523 L 668 612 L 671 623 L 678 623 L 685 618 L 699 600 L 699 524 L 701 522 L 708 521 L 794 521 L 799 512 Z M 270 489 L 267 486 L 263 486 L 258 488 L 230 488 L 224 490 L 166 490 L 157 492 L 23 491 L 20 496 L 28 508 L 40 516 L 64 515 L 69 513 L 111 512 L 113 514 L 112 519 L 116 561 L 120 564 L 129 563 L 135 559 L 141 551 L 141 521 L 139 514 L 141 512 L 173 511 L 176 564 L 180 569 L 190 569 L 202 561 L 205 557 L 205 510 L 266 509 L 269 505 Z M 750 373 L 737 372 L 733 374 L 699 376 L 694 378 L 677 378 L 670 380 L 628 380 L 623 378 L 600 376 L 597 382 L 598 387 L 615 403 L 640 403 L 644 401 L 656 401 L 663 399 L 697 398 L 675 420 L 657 434 L 623 456 L 591 472 L 582 479 L 587 487 L 596 487 L 614 481 L 653 463 L 680 445 L 683 445 L 742 473 L 758 483 L 762 483 L 773 465 L 774 460 L 770 454 L 701 430 L 716 419 L 741 394 L 749 380 Z M 537 492 L 536 487 L 531 484 L 526 486 L 505 486 L 492 488 L 434 487 L 436 458 L 494 457 L 497 455 L 499 450 L 498 434 L 447 438 L 376 439 L 371 436 L 372 398 L 374 393 L 484 392 L 489 388 L 489 371 L 486 368 L 478 368 L 474 370 L 452 370 L 446 372 L 421 372 L 414 374 L 373 374 L 336 370 L 330 376 L 330 381 L 340 391 L 342 397 L 342 448 L 344 454 L 351 459 L 403 459 L 405 462 L 406 485 L 404 488 L 372 490 L 296 489 L 294 491 L 294 501 L 302 511 L 310 515 L 338 511 L 370 511 L 378 509 L 528 508 L 533 506 Z M 148 356 L 140 360 L 138 363 L 137 372 L 134 374 L 121 376 L 104 384 L 88 399 L 82 413 L 82 435 L 90 452 L 108 467 L 129 475 L 136 475 L 140 477 L 162 477 L 181 473 L 196 467 L 211 455 L 219 444 L 223 434 L 223 413 L 217 399 L 204 386 L 184 376 L 168 374 L 167 363 L 162 358 Z M 124 399 L 131 395 L 146 391 L 166 393 L 179 399 L 188 409 L 192 419 L 192 431 L 186 443 L 181 448 L 164 456 L 142 456 L 130 452 L 119 443 L 113 432 L 113 415 L 119 404 Z M 158 283 L 155 280 L 142 279 L 78 284 L 73 286 L 50 288 L 42 292 L 38 292 L 35 296 L 42 299 L 56 299 L 67 297 L 98 297 L 106 295 L 149 293 L 157 288 Z M 575 281 L 577 285 L 598 287 L 731 293 L 738 295 L 757 295 L 761 297 L 779 297 L 788 299 L 795 299 L 803 296 L 801 292 L 779 286 L 712 278 L 607 275 L 585 276 L 578 278 Z M 413 279 L 406 276 L 391 274 L 363 274 L 348 272 L 258 274 L 251 276 L 233 276 L 227 278 L 222 284 L 222 287 L 224 289 L 262 289 L 277 287 L 320 287 L 331 285 L 393 285 L 413 282 Z M 671 119 L 668 132 L 664 139 L 652 148 L 648 148 L 645 152 L 661 157 L 666 163 L 670 176 L 672 177 L 679 161 L 690 153 L 698 152 L 698 150 L 688 146 L 679 139 L 675 131 L 673 120 Z M 215 114 L 210 114 L 208 116 L 205 126 L 207 133 L 206 137 L 164 179 L 162 183 L 166 208 L 166 225 L 168 229 L 172 285 L 174 292 L 178 294 L 188 293 L 265 221 L 266 160 L 278 155 L 283 150 L 283 145 L 262 134 L 244 128 L 229 120 L 221 118 Z M 248 153 L 252 156 L 250 215 L 200 261 L 199 258 L 213 220 L 216 216 L 225 211 L 227 205 L 227 198 L 224 194 L 219 192 L 211 192 L 208 194 L 204 202 L 204 209 L 200 217 L 200 221 L 185 259 L 183 252 L 181 219 L 179 213 L 179 187 L 222 143 Z M 574 84 L 571 85 L 570 92 L 566 99 L 559 106 L 551 109 L 551 111 L 559 113 L 566 118 L 570 126 L 571 134 L 574 133 L 575 126 L 579 118 L 595 110 L 594 108 L 584 104 L 579 99 L 575 91 Z M 633 26 L 630 28 L 628 38 L 624 45 L 618 50 L 605 55 L 615 59 L 624 67 L 628 73 L 628 78 L 631 84 L 633 83 L 635 73 L 639 66 L 644 61 L 658 56 L 656 53 L 650 52 L 639 43 L 635 35 L 635 28 Z M 255 23 L 246 34 L 214 104 L 221 109 L 235 113 L 246 119 L 288 135 L 297 106 L 299 104 L 299 99 L 305 84 L 307 73 L 309 71 L 309 66 L 313 56 L 313 46 L 307 40 L 285 30 Z M 476 22 L 456 28 L 433 40 L 404 65 L 390 84 L 380 105 L 374 127 L 372 151 L 376 183 L 382 202 L 394 224 L 412 245 L 435 263 L 458 275 L 485 283 L 501 285 L 532 283 L 534 281 L 548 279 L 564 273 L 596 253 L 617 232 L 627 216 L 629 204 L 627 203 L 603 214 L 589 216 L 586 218 L 563 218 L 537 212 L 524 206 L 504 192 L 493 181 L 479 161 L 471 140 L 469 131 L 469 104 L 471 101 L 471 95 L 477 78 L 489 58 L 504 43 L 515 35 L 528 29 L 531 25 L 528 22 L 522 22 L 519 20 L 488 20 L 485 22 Z M 456 47 L 472 41 L 477 41 L 479 39 L 483 40 L 472 51 L 462 65 L 454 82 L 452 96 L 450 99 L 450 135 L 454 153 L 462 172 L 476 192 L 493 209 L 519 225 L 535 231 L 553 235 L 591 234 L 570 250 L 554 258 L 532 264 L 494 264 L 477 260 L 454 250 L 434 236 L 421 223 L 407 203 L 401 190 L 395 167 L 394 141 L 395 127 L 397 125 L 399 111 L 407 93 L 417 78 L 440 57 Z"/>
  </g>
</svg>
